<?xml version="1.0" encoding="iso-8859-1"?>
<!-- Generator: Adobe Illustrator 16.0.0, SVG Export Plug-In . SVG Version: 6.00 Build 0)  -->
<!DOCTYPE svg PUBLIC "-//W3C//DTD SVG 1.1//EN" "http://www.w3.org/Graphics/SVG/1.1/DTD/svg11.dtd">
<svg version="1.1" xmlns="http://www.w3.org/2000/svg" xmlns:xlink="http://www.w3.org/1999/xlink" x="0px" y="0px" width="512px"
	 height="512px" viewBox="0 0 512 512" style="enable-background:new 0 0 512 512;" xml:space="preserve">
<g id="F735_x2C__Crescent_x2C__moon_x2C__night">
	<g>
		<g>
			<path style="fill:#D7DEED;" d="M216,481c-104.93,0-190-84.69-190-189.15C26,216.47,70.3,151.4,134.38,121
				C122.6,145.62,116,173.17,116,202.25c0,104.47,85.07,189.15,190,189.15c29.22,0,56.89-6.57,81.62-18.301
				C357.08,436.9,291.72,481,216,481z"/>
			<polygon style="fill:#FCD884;" points="486,250.38 451.71,283.8 459.8,331 417.42,308.72 375.03,331 383.13,283.8 348.84,250.38 
				396.23,243.49 417.42,200.55 438.61,243.49 			"/>
			<polygon style="fill:#FCD884;" points="486,70.66 451.71,103.97 459.8,151 417.42,128.79 375.03,151 383.13,103.97 348.84,70.66 
				396.23,63.79 417.42,21 438.61,63.79 			"/>
			<polygon style="fill:#FCD884;" points="323.16,130.38 288.87,163.8 296.97,211 254.58,188.72 212.2,211 220.29,163.8 186,130.38 
				233.39,123.49 254.58,80.55 275.77,123.49 			"/>
			<path style="fill:#3C3B3D;" d="M486,491H26c-5.523,0-10-4.478-10-10s4.477-10,10-10h460c5.522,0,10,4.478,10,10
				S491.522,491,486,491z"/>
			<g>
				<path style="fill:#AFB9D2;" d="M146,401c0-5.522-4.477-10-10-10H56c-0.588,0-1.161,0.061-1.721,0.158
					c4.299,6.924,9.034,13.55,14.167,19.842H136C141.523,411,146,406.522,146,401z"/>
				<path style="fill:#AFB9D2;" d="M116,351c0-5.522-4.477-10-10-10H32.493c1.84,6.825,4.043,13.503,6.608,20H106
					C111.523,361,116,356.522,116,351z"/>
			</g>
		</g>
	</g>
</g>
<g id="Layer_1">
</g>
</svg>
