<?xml version="1.0" encoding="iso-8859-1"?>
<!-- Generator: Adobe Illustrator 16.0.0, SVG Export Plug-In . SVG Version: 6.00 Build 0)  -->
<!DOCTYPE svg PUBLIC "-//W3C//DTD SVG 1.1//EN" "http://www.w3.org/Graphics/SVG/1.1/DTD/svg11.dtd">
<svg version="1.1" xmlns="http://www.w3.org/2000/svg" xmlns:xlink="http://www.w3.org/1999/xlink" x="0px" y="0px" width="520px"
	 height="520px" viewBox="0 0 520 520" style="enable-background:new 0 0 520 520;" xml:space="preserve">
<g id="_x37_01_x2C__Sun_x2C__Sunny_x2C__Weather">
	<g>
		<g>
			<path style="fill:#FCD884;" d="M450.75,255.01c-16.36-8.65-29.25-23.85-34.44-43.29c-5.199-19.3-1.609-38.92,8.21-54.64
				c-18.539,0.71-37.27-5.96-51.439-20.13c-14.17-14.18-20.91-32.97-20.2-51.5c-15.649,9.88-35.34,13.4-54.64,8.21
				c-19.37-5.13-34.57-18.02-43.23-34.38c-8.65,16.36-23.85,29.25-43.22,34.38c-19.3,5.19-38.99,1.67-54.64-8.21
				c0.699,18.53-6.03,37.32-20.2,51.5c-14.181,14.17-32.9,20.84-51.44,20.13c9.82,15.72,13.41,35.34,8.211,54.64
				c-5.191,19.44-18.08,34.64-34.441,43.29c16.361,8.66,29.25,23.86,34.441,43.16c5.129,19.37,1.67,39-8.271,54.71
				c18.53-0.71,37.319,6.03,51.5,20.2c14.17,14.17,20.84,32.9,20.13,51.439c15.779-9.88,35.34-13.409,54.71-8.279
				c19.37,5.26,34.569,18.149,43.22,34.51c8.66-16.36,23.86-29.25,43.23-34.51c19.37-5.13,38.93-1.601,54.7,8.279
				c-0.7-18.539,5.97-37.27,20.14-51.439s32.96-20.91,51.5-20.2c-9.94-15.71-13.4-35.34-8.271-54.71
				C421.5,278.87,434.39,263.67,450.75,255.01z"/>
			<path style="fill:#D7DEED;" d="M65,65c11.05,0,20,8.95,20,20s-8.95,20-20,20s-20-8.95-20-20S53.95,65,65,65z"/>
			<path style="fill:#D7DEED;" d="M70,445c8.279,0,15,6.72,15,15s-6.721,15-15,15s-15-6.72-15-15S61.721,445,70,445z"/>
			<circle style="fill:#D7DEED;" cx="450" cy="430" r="25"/>
			<path style="fill:#D7DEED;" d="M462.07,167.93c3.91,3.9,3.91,10.24,0,14.14c-1.95,1.95-4.511,2.93-7.07,2.93
				s-5.12-0.98-7.07-2.93c-1.949-1.95-2.93-4.51-2.93-7.07s0.98-5.12,2.93-7.07c1.95-1.95,4.511-2.93,7.07-2.93
				S460.12,165.98,462.07,167.93z"/>
			<path style="fill:#D7DEED;" d="M392.07,47.93c3.91,3.9,3.91,10.24,0,14.14C390.12,64.02,387.56,65,385,65s-5.12-0.98-7.07-2.93
				C375.98,60.12,375,57.56,375,55s0.98-5.12,2.93-7.07C379.88,45.98,382.44,45,385,45S390.12,45.98,392.07,47.93z"/>
			<path style="fill:#D7DEED;" d="M322.07,457.93c3.91,3.9,3.91,10.24,0,14.141c-1.95,1.949-4.511,2.93-7.07,2.93
				s-5.12-0.98-7.07-2.93c-1.949-1.95-2.93-4.511-2.93-7.07s0.98-5.12,2.93-7.07c1.95-1.949,4.511-2.93,7.07-2.93
				S320.12,455.98,322.07,457.93z"/>
			<path style="fill:#D7DEED;" d="M62.07,377.93c3.91,3.9,3.91,10.24,0,14.141C60.12,394.02,57.561,395,55,395s-5.12-0.98-7.07-2.93
				C45.98,390.12,45,387.56,45,385s0.98-5.12,2.93-7.07c1.95-1.949,4.51-2.93,7.07-2.93S60.12,375.98,62.07,377.93z"/>
			<path style="fill:#FFB95A;" d="M335.4,174.62c-44.431-44.43-116.34-44.43-160.78,0c-37.021,37.02-43.2,93.29-18.38,136.72
				c4.9,8.61,11.029,16.71,18.38,24.061c44.36,44.359,116.43,44.359,160.78,0C379.84,290.97,379.76,218.98,335.4,174.62z"/>
			<g>
				<path style="fill:#E8A04B;" d="M219.66,280.35c-2.561,0-5.12,0.971-7.07,2.931c-1.949,1.95-2.93,4.51-2.93,7.069
					c0,2.561,0.98,5.12,2.93,7.07c1.95,1.96,4.51,2.93,7.07,2.93s5.119-0.97,7.07-2.93c3.91-3.9,3.91-10.24,0-14.14
					C224.779,281.32,222.221,280.35,219.66,280.35z"/>
				<path style="fill:#E8A04B;" d="M219.66,219.64c3.9-3.91,3.9-10.24,0-14.14c-1.96-1.96-4.52-2.93-7.07-2.93
					c-2.561,0-5.119,0.97-7.07,2.93c-1.959,1.95-2.93,4.51-2.93,7.07c0,2.55,0.971,5.11,2.93,7.07c1.951,1.95,4.51,2.92,7.07,2.92
					C215.141,222.56,217.7,221.59,219.66,219.64z"/>
				<path style="fill:#E8A04B;" d="M233.809,276.222c1.953,1.953,4.512,2.929,7.071,2.929s5.119-0.977,7.071-2.93l94.207-94.216
					c-2.127-2.534-4.375-5.001-6.758-7.384c-2.383-2.383-4.851-4.631-7.383-6.759l-94.209,94.219
					C229.903,265.985,229.904,272.316,233.809,276.222z"/>
				<path style="fill:#E8A04B;" d="M318.651,262.068c-3.906-3.904-10.236-3.904-14.143,0l-91.92,91.92
					c-1.515,1.515-2.435,3.395-2.774,5.355c6.281,2.715,12.758,4.83,19.345,6.359l89.492-89.492
					C322.557,272.306,322.557,265.974,318.651,262.068z"/>
				<path style="fill:#E8A04B;" d="M205.521,276.212c3.905-3.905,3.906-10.237,0.001-14.143c-3.904-3.905-10.236-3.905-14.142-0.002
					l-39.909,39.901c1.441,3.178,3.02,6.31,4.77,9.371c1.648,2.897,3.449,5.73,5.375,8.503c0.518-0.35,1.01-0.747,1.468-1.204
					L205.521,276.212z"/>
				<path style="fill:#E8A04B;" d="M226.729,198.42c1.952,1.953,4.512,2.93,7.071,2.93c2.559,0,5.118-0.976,7.07-2.928l42.431-42.42
					c2.845-2.844,3.607-6.974,2.309-10.518c-5.504-1.534-11.098-2.65-16.735-3.339l-42.145,42.134
					C222.824,188.183,222.823,194.515,226.729,198.42z"/>
			</g>
		</g>
	</g>
</g>
<g id="Layer_1">
</g>
</svg>
